<?xml version="1.0" standalone="no"?>
<!DOCTYPE svg PUBLIC "-//W3C//DTD SVG 20010904//EN"
 "http://www.w3.org/TR/2001/REC-SVG-20010904/DTD/svg10.dtd">
<svg version="1.0" xmlns="http://www.w3.org/2000/svg"
 width="290.000000pt" height="210.000000pt" viewBox="0 0 290.000000 210.000000"
 preserveAspectRatio="xMidYMid meet">

<g transform="translate(0.000000,210.000000) scale(0.100000,-0.100000)"
fill="#FFF" stroke="none">
<path d="M2175 1909 c-11 -6 -255 -246 -542 -533 l-523 -521 -202 202 c-112
110 -213 206 -225 212 -27 14 -83 14 -120 0 -33 -12 -138 -112 -159 -151 -18
-35 -18 -111 0 -146 8 -15 159 -171 335 -347 l321 -320 50 0 50 0 641 640
c352 352 647 652 655 667 18 35 18 111 0 146 -21 39 -126 139 -159 151 -36 14
-96 13 -122 0z"/>
</g>
</svg>
